<svg xmlns="http://www.w3.org/2000/svg" viewBox="0 0 900 900">
  <g fill="none" stroke="#9aa0a6" stroke-width="0.6" opacity="0.6">
    <path d="M620 40a320 320 0 0 1 240 240" />
    <path d="M700 80a260 260 0 0 1 180 180" />
    <path d="M760 140a200 200 0 0 1 120 120" />
    <path d="M520 120c120 40 220 140 260 260" />
    <path d="M580 200c80 30 150 100 180 180" />
    <path d="M680 320c40 30 70 60 90 110" />
    <path d="M460 60c140 60 240 160 300 300" />
    <path d="M560 360c60 20 100 60 130 120" />
  </g>
</svg>
